<?xml version="1.0" encoding="UTF-8"?>
<!DOCTYPE svg PUBLIC "-//W3C//DTD SVG 1.1//EN" "http://www.w3.org/Graphics/SVG/1.1/DTD/svg11.dtd">
<!-- Creator: CorelDRAW X7 -->
<svg xmlns="http://www.w3.org/2000/svg" xml:space="preserve" width="46.1581mm" height="46.1581mm" version="1.1" style="shape-rendering:geometricPrecision; text-rendering:geometricPrecision; image-rendering:optimizeQuality; fill-rule:evenodd; clip-rule:evenodd"
viewBox="0 0 6693 6693"
 xmlns:xlink="http://www.w3.org/1999/xlink">
 <defs>
  <style type="text/css">
   <![CDATA[
    .fil0 {fill:#C7FF00}
    .fil1 {fill:black;fill-rule:nonzero}
   ]]>
  </style>
 </defs>
 <g id="Layer_x0020_1">
  <metadata id="CorelCorpID_0Corel-Layer"/>
  <rect class="fil0" width="6693" height="6693"/>
  <path class="fil1" d="M1379 4720l0 -2747 767 0c181,0 338,35 471,104 132,69 236,167 310,293 74,127 111,274 111,442l0 1061c0,173 -37,323 -111,448 -74,125 -178,223 -310,293 -133,71 -290,106 -471,106l-767 0zm406 -365l361 0c148,0 266,-43 354,-128 88,-85 132,-203 132,-354l0 -1061c0,-145 -44,-261 -132,-348 -88,-86 -206,-129 -354,-129l-361 0 0 2020zm1821 365l0 -2747 809 0c258,0 462,64 611,190 150,127 224,301 224,521 0,146 -44,273 -131,382 -88,109 -202,176 -343,202l0 11c106,12 199,50 281,113 81,62 144,141 190,237 45,95 67,202 67,319 0,236 -76,424 -229,563 -153,139 -359,209 -617,209l-862 0zm395 -1595l410 0c133,0 239,-36 318,-108 79,-71 119,-170 119,-295 0,-123 -39,-220 -117,-292 -78,-71 -183,-107 -316,-107l-414 0 0 802zm0 1245l433 0c148,0 265,-40 350,-119 85,-79 128,-186 128,-321 0,-141 -43,-254 -128,-339 -85,-85 -202,-128 -350,-128l-433 0 0 907z"/>
 </g>
</svg>
